<mxfile host="app.diagrams.net" agent="Mozilla/5.0 (Windows NT 10.0; Win64; x64) AppleWebKit/537.36 (KHTML, like Gecko) Chrome/131.0.0.0 Safari/537.36 Edg/131.0.0.0" version="25.0.3">
  <diagram id="9TTqhsjaUuhExnY83GRx" name="Página-1">
    <mxGraphModel dx="1426" dy="791" grid="1" gridSize="10" guides="1" tooltips="1" connect="1" arrows="1" fold="1" page="1" pageScale="1" pageWidth="827" pageHeight="1169" math="0" shadow="0">
      <root>
        <mxCell id="0" />
        <mxCell id="1" parent="0" />
        <mxCell id="yUxTOVAlQq0O8gakrRYU-107" value="" style="shape=partialRectangle;connectable=0;fillColor=none;top=0;left=0;bottom=0;right=0;align=left;spacingLeft=6;overflow=hidden;whiteSpace=wrap;html=1;" vertex="1" parent="1">
          <mxGeometry x="70" y="1040" width="150" height="30" as="geometry">
            <mxRectangle width="150" height="30" as="alternateBounds" />
          </mxGeometry>
        </mxCell>
        <mxCell id="yUxTOVAlQq0O8gakrRYU-128" value="SubCategorias" style="swimlane;childLayout=stackLayout;horizontal=1;startSize=50;horizontalStack=0;rounded=1;fontSize=14;fontStyle=0;strokeWidth=2;resizeParent=0;resizeLast=1;shadow=0;dashed=0;align=center;arcSize=4;whiteSpace=wrap;html=1;" vertex="1" parent="1">
          <mxGeometry x="310" y="30" width="180" height="90" as="geometry" />
        </mxCell>
        <mxCell id="yUxTOVAlQq0O8gakrRYU-129" value="ID_SubCategoria INT (PK)&lt;div&gt;SubCategoria VARCHAR(150)&lt;/div&gt;" style="align=left;strokeColor=none;fillColor=none;spacingLeft=4;fontSize=12;verticalAlign=top;resizable=0;rotatable=0;part=1;html=1;" vertex="1" parent="yUxTOVAlQq0O8gakrRYU-128">
          <mxGeometry y="50" width="180" height="40" as="geometry" />
        </mxCell>
        <mxCell id="yUxTOVAlQq0O8gakrRYU-130" value="Productos" style="swimlane;childLayout=stackLayout;horizontal=1;startSize=50;horizontalStack=0;rounded=1;fontSize=14;fontStyle=0;strokeWidth=2;resizeParent=0;resizeLast=1;shadow=0;dashed=0;align=center;arcSize=4;whiteSpace=wrap;html=1;" vertex="1" parent="1">
          <mxGeometry x="77.5" y="30" width="160" height="140" as="geometry" />
        </mxCell>
        <mxCell id="yUxTOVAlQq0O8gakrRYU-131" value="ID_Producto INT (PK)&amp;nbsp;&lt;div&gt;Producto VARCHAR(50)&lt;/div&gt;&lt;div&gt;ID_Categoria INT (FK)&lt;/div&gt;&lt;div&gt;D_SubCategoria INT (FK)&lt;/div&gt;&lt;div&gt;Fecha_Alta DATE&lt;/div&gt;" style="align=left;strokeColor=none;fillColor=none;spacingLeft=4;fontSize=12;verticalAlign=top;resizable=0;rotatable=0;part=1;html=1;" vertex="1" parent="yUxTOVAlQq0O8gakrRYU-130">
          <mxGeometry y="50" width="160" height="90" as="geometry" />
        </mxCell>
        <mxCell id="yUxTOVAlQq0O8gakrRYU-134" value="Categorias" style="swimlane;childLayout=stackLayout;horizontal=1;startSize=50;horizontalStack=0;rounded=1;fontSize=14;fontStyle=0;strokeWidth=2;resizeParent=0;resizeLast=1;shadow=0;dashed=0;align=center;arcSize=4;whiteSpace=wrap;html=1;" vertex="1" parent="1">
          <mxGeometry x="561" y="30" width="180" height="120" as="geometry" />
        </mxCell>
        <mxCell id="yUxTOVAlQq0O8gakrRYU-135" value="ID_Categoria INT (PK)&lt;div&gt;Categoria VARCHAR(150)&lt;/div&gt;&lt;div&gt;ID_SubCategoria INT (FK)&lt;/div&gt;" style="align=left;strokeColor=none;fillColor=none;spacingLeft=4;fontSize=12;verticalAlign=top;resizable=0;rotatable=0;part=1;html=1;" vertex="1" parent="yUxTOVAlQq0O8gakrRYU-134">
          <mxGeometry y="50" width="180" height="70" as="geometry" />
        </mxCell>
        <mxCell id="yUxTOVAlQq0O8gakrRYU-139" value="Partes_De_Producción" style="swimlane;childLayout=stackLayout;horizontal=1;startSize=50;horizontalStack=0;rounded=1;fontSize=14;fontStyle=0;strokeWidth=2;resizeParent=0;resizeLast=1;shadow=0;dashed=0;align=center;arcSize=4;whiteSpace=wrap;html=1;" vertex="1" parent="1">
          <mxGeometry x="55" y="260" width="205" height="190" as="geometry" />
        </mxCell>
        <mxCell id="yUxTOVAlQq0O8gakrRYU-140" value="ID_Parte_Produccion INT (PK)&lt;div&gt;Pedido_De_Produccion INT&lt;/div&gt;&lt;div&gt;Estado VARCHAR(20)&lt;/div&gt;&lt;div&gt;Fecha_Inicio DATE&lt;/div&gt;&lt;div&gt;Fecha_Finalizacion DATE&lt;/div&gt;&lt;div&gt;ID_Producto INT (FK)&lt;/div&gt;&lt;div&gt;Cantidad INT&lt;/div&gt;&lt;div&gt;Costo_Por_Unidad DECIMAL(10,2)&lt;/div&gt;&lt;div&gt;Costo_Total DECIMAL(10,2)&lt;/div&gt;" style="align=left;strokeColor=none;fillColor=none;spacingLeft=4;fontSize=12;verticalAlign=top;resizable=0;rotatable=0;part=1;html=1;" vertex="1" parent="yUxTOVAlQq0O8gakrRYU-139">
          <mxGeometry y="50" width="205" height="140" as="geometry" />
        </mxCell>
        <mxCell id="yUxTOVAlQq0O8gakrRYU-141" value="Stock_Bienes_Finalizados" style="swimlane;childLayout=stackLayout;horizontal=1;startSize=50;horizontalStack=0;rounded=1;fontSize=14;fontStyle=0;strokeWidth=2;resizeParent=0;resizeLast=1;shadow=0;dashed=0;align=center;arcSize=4;whiteSpace=wrap;html=1;" vertex="1" parent="1">
          <mxGeometry x="552.5" y="160" width="240" height="130" as="geometry" />
        </mxCell>
        <mxCell id="yUxTOVAlQq0O8gakrRYU-142" value="ID_Stock INT (PK)&lt;div&gt;ID_Producto INT (FK)&lt;/div&gt;&lt;div&gt;Cantidad INT&lt;/div&gt;&lt;div&gt;Precio DECIMAL(10,2)&lt;/div&gt;&lt;div&gt;Ultimo_Costo_Fabricado DECIMAL(10,2)&lt;/div&gt;" style="align=left;strokeColor=none;fillColor=none;spacingLeft=4;fontSize=12;verticalAlign=top;resizable=0;rotatable=0;part=1;html=1;" vertex="1" parent="yUxTOVAlQq0O8gakrRYU-141">
          <mxGeometry y="50" width="240" height="80" as="geometry" />
        </mxCell>
        <mxCell id="yUxTOVAlQq0O8gakrRYU-143" value="Ventas" style="swimlane;childLayout=stackLayout;horizontal=1;startSize=50;horizontalStack=0;rounded=1;fontSize=14;fontStyle=0;strokeWidth=2;resizeParent=0;resizeLast=1;shadow=0;dashed=0;align=center;arcSize=4;whiteSpace=wrap;html=1;" vertex="1" parent="1">
          <mxGeometry x="315" y="310" width="205" height="250" as="geometry" />
        </mxCell>
        <mxCell id="yUxTOVAlQq0O8gakrRYU-144" value="ID_Ventas INT (PK)&lt;div&gt;Fecha DATE&lt;/div&gt;&lt;div&gt;Factura INT (FK)&lt;/div&gt;&lt;div&gt;ID_Producto INT (FK)&lt;/div&gt;&lt;div&gt;ID_Tienda INT (FK)&lt;/div&gt;&lt;div&gt;ID_Vendedor INT (FK)&lt;/div&gt;&lt;div&gt;Cantidad INT&lt;/div&gt;&lt;div&gt;Precio_Venta DECIMAL(10,2)&lt;/div&gt;&lt;div&gt;Precio_Actualizado DECIMAL(10,2)&lt;/div&gt;&lt;div&gt;Importe DECIMAL(10,2)&amp;nbsp;&lt;/div&gt;&lt;div&gt;IVA DECIMAL(10,2)&lt;/div&gt;&lt;div&gt;Otros_Impuestos DECIMAL(10,2)&lt;/div&gt;&lt;div&gt;Importe_Final DECIMAL(10,2)&lt;/div&gt;" style="align=left;strokeColor=none;fillColor=none;spacingLeft=4;fontSize=12;verticalAlign=top;resizable=0;rotatable=0;part=1;html=1;" vertex="1" parent="yUxTOVAlQq0O8gakrRYU-143">
          <mxGeometry y="50" width="205" height="200" as="geometry" />
        </mxCell>
        <mxCell id="yUxTOVAlQq0O8gakrRYU-146" value="Tiendas" style="swimlane;childLayout=stackLayout;horizontal=1;startSize=50;horizontalStack=0;rounded=1;fontSize=14;fontStyle=0;strokeWidth=2;resizeParent=0;resizeLast=1;shadow=0;dashed=0;align=center;arcSize=4;whiteSpace=wrap;html=1;" vertex="1" parent="1">
          <mxGeometry x="605.25" y="304" width="183" height="130" as="geometry" />
        </mxCell>
        <mxCell id="yUxTOVAlQq0O8gakrRYU-147" value="ID_Tienda INT (PK)&lt;div&gt;Tienda VARCHAR(40)&lt;/div&gt;&lt;div&gt;Cantidad_Vendedores INT&lt;/div&gt;&lt;div&gt;Direccion VARCHAR(50)&lt;/div&gt;&lt;div&gt;ID_Localidad INT (FK)&lt;/div&gt;" style="align=left;strokeColor=none;fillColor=none;spacingLeft=4;fontSize=12;verticalAlign=top;resizable=0;rotatable=0;part=1;html=1;" vertex="1" parent="yUxTOVAlQq0O8gakrRYU-146">
          <mxGeometry y="50" width="183" height="80" as="geometry" />
        </mxCell>
        <mxCell id="yUxTOVAlQq0O8gakrRYU-148" value="Listado_Contactos" style="swimlane;childLayout=stackLayout;horizontal=1;startSize=50;horizontalStack=0;rounded=1;fontSize=14;fontStyle=0;strokeWidth=2;resizeParent=0;resizeLast=1;shadow=0;dashed=0;align=center;arcSize=4;whiteSpace=wrap;html=1;" vertex="1" parent="1">
          <mxGeometry x="42.5" y="520" width="205" height="150" as="geometry" />
        </mxCell>
        <mxCell id="yUxTOVAlQq0O8gakrRYU-149" value="ID_Contacto INT (PK)&lt;div&gt;Nombre_Apellido VARCHAR(150)&lt;div&gt;Email VARCHAR(110)&lt;div&gt;Telefono INT&lt;div&gt;Interno INT&lt;div&gt;Celular INT&lt;/div&gt;&lt;/div&gt;&lt;/div&gt;&lt;/div&gt;&lt;/div&gt;" style="align=left;strokeColor=none;fillColor=none;spacingLeft=4;fontSize=12;verticalAlign=top;resizable=0;rotatable=0;part=1;html=1;" vertex="1" parent="yUxTOVAlQq0O8gakrRYU-148">
          <mxGeometry y="50" width="205" height="100" as="geometry" />
        </mxCell>
        <mxCell id="yUxTOVAlQq0O8gakrRYU-150" value="Localidades" style="swimlane;childLayout=stackLayout;horizontal=1;startSize=50;horizontalStack=0;rounded=1;fontSize=14;fontStyle=0;strokeWidth=2;resizeParent=0;resizeLast=1;shadow=0;dashed=0;align=center;arcSize=4;whiteSpace=wrap;html=1;" vertex="1" parent="1">
          <mxGeometry x="605.25" y="490" width="183" height="130" as="geometry" />
        </mxCell>
        <mxCell id="yUxTOVAlQq0O8gakrRYU-151" value="ID_Localidad INT (PK)&lt;div&gt;Ciudad VARCHAR(20)&lt;div&gt;Provincia VARCHAR(20)&lt;div&gt;Region VARCHAR(10)&lt;/div&gt;&lt;/div&gt;&lt;/div&gt;" style="align=left;strokeColor=none;fillColor=none;spacingLeft=4;fontSize=12;verticalAlign=top;resizable=0;rotatable=0;part=1;html=1;" vertex="1" parent="yUxTOVAlQq0O8gakrRYU-150">
          <mxGeometry y="50" width="183" height="80" as="geometry" />
        </mxCell>
        <mxCell id="yUxTOVAlQq0O8gakrRYU-152" value="Clientes" style="swimlane;childLayout=stackLayout;horizontal=1;startSize=50;horizontalStack=0;rounded=1;fontSize=14;fontStyle=0;strokeWidth=2;resizeParent=0;resizeLast=1;shadow=0;dashed=0;align=center;arcSize=4;whiteSpace=wrap;html=1;" vertex="1" parent="1">
          <mxGeometry x="340" y="800" width="212.5" height="180" as="geometry" />
        </mxCell>
        <mxCell id="yUxTOVAlQq0O8gakrRYU-153" value="ID_Cliente INT (PK)&lt;div&gt;Tipo_Cliente VARCHAR(20)&lt;div&gt;Denominacion_Social VARCHAR(60)&lt;div&gt;Razon_Social VARCHAR(60)&lt;/div&gt;&lt;div&gt;&lt;div&gt;CUIT CHAR(11)&lt;div&gt;ID_Contacto INT (FK)&lt;div&gt;Direccion VARCHAR(130)&lt;div&gt;ID_Localidad INT (FK)&lt;/div&gt;&lt;/div&gt;&lt;/div&gt;&lt;/div&gt;&lt;/div&gt;&lt;/div&gt;&lt;/div&gt;" style="align=left;strokeColor=none;fillColor=none;spacingLeft=4;fontSize=12;verticalAlign=top;resizable=0;rotatable=0;part=1;html=1;" vertex="1" parent="yUxTOVAlQq0O8gakrRYU-152">
          <mxGeometry y="50" width="212.5" height="130" as="geometry" />
        </mxCell>
        <mxCell id="yUxTOVAlQq0O8gakrRYU-154" value="Proveedores" style="swimlane;childLayout=stackLayout;horizontal=1;startSize=50;horizontalStack=0;rounded=1;fontSize=14;fontStyle=0;strokeWidth=2;resizeParent=0;resizeLast=1;shadow=0;dashed=0;align=center;arcSize=4;whiteSpace=wrap;html=1;" vertex="1" parent="1">
          <mxGeometry x="590.5" y="800" width="212.5" height="180" as="geometry" />
        </mxCell>
        <mxCell id="yUxTOVAlQq0O8gakrRYU-155" value="ID_Proveedores INT (PK)&lt;div&gt;Tipo_Proveedor VARCHAR(20)&lt;div&gt;Denominacion_Social VARCHAR((60)&lt;div&gt;Razon_Social VARCHAR(60)&lt;div&gt;CUIT CHAR(11)&lt;div&gt;ID_Contacto INT (FK)&lt;div&gt;Direccion VARCHAR(130)&lt;div&gt;ID_Localidad INT (FK)&lt;/div&gt;&lt;/div&gt;&lt;/div&gt;&lt;/div&gt;&lt;/div&gt;&lt;/div&gt;&lt;/div&gt;" style="align=left;strokeColor=none;fillColor=none;spacingLeft=4;fontSize=12;verticalAlign=top;resizable=0;rotatable=0;part=1;html=1;" vertex="1" parent="yUxTOVAlQq0O8gakrRYU-154">
          <mxGeometry y="50" width="212.5" height="130" as="geometry" />
        </mxCell>
        <mxCell id="yUxTOVAlQq0O8gakrRYU-156" value="Vendedores" style="swimlane;childLayout=stackLayout;horizontal=1;startSize=50;horizontalStack=0;rounded=1;fontSize=14;fontStyle=0;strokeWidth=2;resizeParent=0;resizeLast=1;shadow=0;dashed=0;align=center;arcSize=4;whiteSpace=wrap;html=1;" vertex="1" parent="1">
          <mxGeometry x="40" y="690" width="235" height="220" as="geometry" />
        </mxCell>
        <mxCell id="yUxTOVAlQq0O8gakrRYU-157" value="ID_Vendedor INT (PK)&lt;div&gt;Legajo INT&lt;div&gt;Vendedor VARCHAR(100)&lt;div&gt;Tipo_Documento VARCHAR(10)&lt;div&gt;DOC_N° INT&lt;div&gt;Fecha_Nacimiento DATE&lt;div&gt;Edad INT&lt;div&gt;Domicilio VARCHAR(140)&lt;div&gt;&lt;span style=&quot;background-color: initial;&quot;&gt;ID_Localidad INT (FK)&lt;/span&gt;&lt;div&gt;&lt;div&gt;Especialidad_De_Venta VARCHAR(150)&lt;div&gt;Titulo VARCHAR(20)&lt;/div&gt;&lt;/div&gt;&lt;/div&gt;&lt;/div&gt;&lt;/div&gt;&lt;/div&gt;&lt;/div&gt;&lt;/div&gt;&lt;/div&gt;&lt;/div&gt;&lt;/div&gt;" style="align=left;strokeColor=none;fillColor=none;spacingLeft=4;fontSize=12;verticalAlign=top;resizable=0;rotatable=0;part=1;html=1;" vertex="1" parent="yUxTOVAlQq0O8gakrRYU-156">
          <mxGeometry y="50" width="235" height="170" as="geometry" />
        </mxCell>
        <mxCell id="yUxTOVAlQq0O8gakrRYU-158" value="" style="endArrow=none;html=1;rounded=0;exitX=1;exitY=0.25;exitDx=0;exitDy=0;entryX=0;entryY=0.5;entryDx=0;entryDy=0;" edge="1" parent="1" source="yUxTOVAlQq0O8gakrRYU-129" target="yUxTOVAlQq0O8gakrRYU-134">
          <mxGeometry width="50" height="50" relative="1" as="geometry">
            <mxPoint x="330" y="290" as="sourcePoint" />
            <mxPoint x="520" y="90" as="targetPoint" />
          </mxGeometry>
        </mxCell>
        <mxCell id="yUxTOVAlQq0O8gakrRYU-159" value="" style="endArrow=none;html=1;rounded=0;entryX=0;entryY=0;entryDx=0;entryDy=0;exitX=0.848;exitY=1;exitDx=0;exitDy=0;exitPerimeter=0;" edge="1" parent="1" source="yUxTOVAlQq0O8gakrRYU-131" target="yUxTOVAlQq0O8gakrRYU-142">
          <mxGeometry width="50" height="50" relative="1" as="geometry">
            <mxPoint x="330" y="290" as="sourcePoint" />
            <mxPoint x="380" y="240" as="targetPoint" />
            <Array as="points">
              <mxPoint x="213" y="210" />
            </Array>
          </mxGeometry>
        </mxCell>
        <mxCell id="yUxTOVAlQq0O8gakrRYU-162" value="" style="endArrow=none;html=1;rounded=0;exitX=0.5;exitY=0;exitDx=0;exitDy=0;entryX=0.5;entryY=1;entryDx=0;entryDy=0;" edge="1" parent="1" source="yUxTOVAlQq0O8gakrRYU-139" target="yUxTOVAlQq0O8gakrRYU-131">
          <mxGeometry width="50" height="50" relative="1" as="geometry">
            <mxPoint x="330" y="290" as="sourcePoint" />
            <mxPoint x="150" y="180" as="targetPoint" />
          </mxGeometry>
        </mxCell>
        <mxCell id="yUxTOVAlQq0O8gakrRYU-165" value="" style="endArrow=none;html=1;rounded=0;entryX=-0.007;entryY=0.415;entryDx=0;entryDy=0;entryPerimeter=0;exitX=0.99;exitY=0.135;exitDx=0;exitDy=0;exitPerimeter=0;" edge="1" parent="1" source="yUxTOVAlQq0O8gakrRYU-144" target="yUxTOVAlQq0O8gakrRYU-147">
          <mxGeometry width="50" height="50" relative="1" as="geometry">
            <mxPoint x="520" y="393" as="sourcePoint" />
            <mxPoint x="380" y="140" as="targetPoint" />
          </mxGeometry>
        </mxCell>
        <mxCell id="yUxTOVAlQq0O8gakrRYU-166" value="" style="endArrow=none;html=1;rounded=0;exitX=1;exitY=0.75;exitDx=0;exitDy=0;entryX=0.5;entryY=0;entryDx=0;entryDy=0;" edge="1" parent="1" source="yUxTOVAlQq0O8gakrRYU-131" target="yUxTOVAlQq0O8gakrRYU-143">
          <mxGeometry width="50" height="50" relative="1" as="geometry">
            <mxPoint x="330" y="190" as="sourcePoint" />
            <mxPoint x="380" y="140" as="targetPoint" />
            <Array as="points">
              <mxPoint x="418" y="148" />
            </Array>
          </mxGeometry>
        </mxCell>
        <mxCell id="yUxTOVAlQq0O8gakrRYU-167" value="" style="endArrow=none;html=1;rounded=0;exitX=0.459;exitY=-0.012;exitDx=0;exitDy=0;exitPerimeter=0;entryX=0.463;entryY=1.015;entryDx=0;entryDy=0;entryPerimeter=0;" edge="1" parent="1" source="yUxTOVAlQq0O8gakrRYU-150" target="yUxTOVAlQq0O8gakrRYU-147">
          <mxGeometry width="50" height="50" relative="1" as="geometry">
            <mxPoint x="803" y="772.8" as="sourcePoint" />
            <mxPoint x="662.5899999999999" y="490" as="targetPoint" />
          </mxGeometry>
        </mxCell>
        <mxCell id="yUxTOVAlQq0O8gakrRYU-168" value="" style="endArrow=none;html=1;rounded=0;entryX=0.5;entryY=1;entryDx=0;entryDy=0;exitX=0.5;exitY=0;exitDx=0;exitDy=0;" edge="1" parent="1" source="yUxTOVAlQq0O8gakrRYU-154" target="yUxTOVAlQq0O8gakrRYU-151">
          <mxGeometry width="50" height="50" relative="1" as="geometry">
            <mxPoint x="330" y="790" as="sourcePoint" />
            <mxPoint x="380" y="740" as="targetPoint" />
          </mxGeometry>
        </mxCell>
        <mxCell id="yUxTOVAlQq0O8gakrRYU-169" value="" style="endArrow=none;html=1;rounded=0;exitX=0.989;exitY=0.368;exitDx=0;exitDy=0;exitPerimeter=0;entryX=0.5;entryY=0;entryDx=0;entryDy=0;" edge="1" parent="1" source="yUxTOVAlQq0O8gakrRYU-149" target="yUxTOVAlQq0O8gakrRYU-152">
          <mxGeometry width="50" height="50" relative="1" as="geometry">
            <mxPoint x="330" y="490" as="sourcePoint" />
            <mxPoint x="380" y="440" as="targetPoint" />
            <Array as="points">
              <mxPoint x="446" y="607" />
            </Array>
          </mxGeometry>
        </mxCell>
        <mxCell id="yUxTOVAlQq0O8gakrRYU-170" value="" style="endArrow=none;html=1;rounded=0;exitX=0.306;exitY=-0.006;exitDx=0;exitDy=0;exitPerimeter=0;entryX=0.439;entryY=0.995;entryDx=0;entryDy=0;entryPerimeter=0;" edge="1" parent="1" source="yUxTOVAlQq0O8gakrRYU-152" target="yUxTOVAlQq0O8gakrRYU-144">
          <mxGeometry width="50" height="50" relative="1" as="geometry">
            <mxPoint x="330" y="690" as="sourcePoint" />
            <mxPoint x="410" y="561" as="targetPoint" />
          </mxGeometry>
        </mxCell>
        <mxCell id="yUxTOVAlQq0O8gakrRYU-171" value="" style="endArrow=none;html=1;rounded=0;exitX=1;exitY=0.25;exitDx=0;exitDy=0;entryX=0.303;entryY=0.007;entryDx=0;entryDy=0;entryPerimeter=0;" edge="1" parent="1" source="yUxTOVAlQq0O8gakrRYU-149" target="yUxTOVAlQq0O8gakrRYU-154">
          <mxGeometry width="50" height="50" relative="1" as="geometry">
            <mxPoint x="330" y="590" as="sourcePoint" />
            <mxPoint x="380" y="540" as="targetPoint" />
            <Array as="points">
              <mxPoint x="560" y="595" />
              <mxPoint x="560" y="710" />
              <mxPoint x="655" y="710" />
            </Array>
          </mxGeometry>
        </mxCell>
        <mxCell id="yUxTOVAlQq0O8gakrRYU-172" value="" style="endArrow=none;html=1;rounded=0;exitX=1;exitY=0;exitDx=0;exitDy=0;entryX=0.3;entryY=1.002;entryDx=0;entryDy=0;entryPerimeter=0;" edge="1" parent="1" source="yUxTOVAlQq0O8gakrRYU-157" target="yUxTOVAlQq0O8gakrRYU-144">
          <mxGeometry width="50" height="50" relative="1" as="geometry">
            <mxPoint x="330" y="710" as="sourcePoint" />
            <mxPoint x="380" y="660" as="targetPoint" />
            <Array as="points">
              <mxPoint x="378" y="740" />
            </Array>
          </mxGeometry>
        </mxCell>
        <mxCell id="yUxTOVAlQq0O8gakrRYU-173" value="" style="endArrow=none;html=1;rounded=0;exitX=0.992;exitY=0.125;exitDx=0;exitDy=0;exitPerimeter=0;entryX=0.336;entryY=1.015;entryDx=0;entryDy=0;entryPerimeter=0;" edge="1" parent="1" source="yUxTOVAlQq0O8gakrRYU-157" target="yUxTOVAlQq0O8gakrRYU-151">
          <mxGeometry width="50" height="50" relative="1" as="geometry">
            <mxPoint x="330" y="710" as="sourcePoint" />
            <mxPoint x="380" y="660" as="targetPoint" />
            <Array as="points">
              <mxPoint x="667" y="763" />
            </Array>
          </mxGeometry>
        </mxCell>
        <mxCell id="yUxTOVAlQq0O8gakrRYU-176" value="1" style="whiteSpace=wrap;html=1;aspect=fixed;fillColor=none;" vertex="1" parent="1">
          <mxGeometry x="450" y="774" width="20" height="20" as="geometry" />
        </mxCell>
        <mxCell id="yUxTOVAlQq0O8gakrRYU-177" value="1" style="whiteSpace=wrap;html=1;aspect=fixed;fillColor=none;" vertex="1" parent="1">
          <mxGeometry x="252.5" y="570" width="20" height="20" as="geometry" />
        </mxCell>
        <mxCell id="yUxTOVAlQq0O8gakrRYU-178" value="1" style="whiteSpace=wrap;html=1;aspect=fixed;fillColor=none;" vertex="1" parent="1">
          <mxGeometry x="252.5" y="612" width="20" height="20" as="geometry" />
        </mxCell>
        <mxCell id="yUxTOVAlQq0O8gakrRYU-179" value="1" style="whiteSpace=wrap;html=1;aspect=fixed;fillColor=none;" vertex="1" parent="1">
          <mxGeometry x="630" y="774" width="20" height="20" as="geometry" />
        </mxCell>
        <mxCell id="yUxTOVAlQq0O8gakrRYU-180" value="1" style="whiteSpace=wrap;html=1;aspect=fixed;fillColor=none;" vertex="1" parent="1">
          <mxGeometry x="672" y="774" width="20" height="20" as="geometry" />
        </mxCell>
        <mxCell id="yUxTOVAlQq0O8gakrRYU-181" value="1" style="whiteSpace=wrap;html=1;aspect=fixed;fillColor=none;" vertex="1" parent="1">
          <mxGeometry x="278" y="716" width="20" height="20" as="geometry" />
        </mxCell>
        <mxCell id="yUxTOVAlQq0O8gakrRYU-182" value="N" style="whiteSpace=wrap;html=1;aspect=fixed;fillColor=none;" vertex="1" parent="1">
          <mxGeometry x="350" y="565" width="20" height="20" as="geometry" />
        </mxCell>
        <mxCell id="yUxTOVAlQq0O8gakrRYU-183" value="N" style="whiteSpace=wrap;html=1;aspect=fixed;fillColor=none;" vertex="1" parent="1">
          <mxGeometry x="278" y="766" width="20" height="20" as="geometry" />
        </mxCell>
        <mxCell id="yUxTOVAlQq0O8gakrRYU-184" value="1" style="whiteSpace=wrap;html=1;aspect=fixed;fillColor=none;" vertex="1" parent="1">
          <mxGeometry x="641" y="624" width="20" height="20" as="geometry" />
        </mxCell>
        <mxCell id="yUxTOVAlQq0O8gakrRYU-185" value="1" style="whiteSpace=wrap;html=1;aspect=fixed;fillColor=none;" vertex="1" parent="1">
          <mxGeometry x="665" y="465" width="20" height="20" as="geometry" />
        </mxCell>
        <mxCell id="yUxTOVAlQq0O8gakrRYU-186" value="1" style="whiteSpace=wrap;html=1;aspect=fixed;fillColor=none;" vertex="1" parent="1">
          <mxGeometry x="701" y="625" width="20" height="20" as="geometry" />
        </mxCell>
        <mxCell id="yUxTOVAlQq0O8gakrRYU-187" value="N" style="whiteSpace=wrap;html=1;aspect=fixed;fillColor=none;" vertex="1" parent="1">
          <mxGeometry x="411" y="565" width="20" height="20" as="geometry" />
        </mxCell>
        <mxCell id="yUxTOVAlQq0O8gakrRYU-188" value="N" style="whiteSpace=wrap;html=1;aspect=fixed;fillColor=none;" vertex="1" parent="1">
          <mxGeometry x="410" y="774" width="20" height="20" as="geometry" />
        </mxCell>
        <mxCell id="yUxTOVAlQq0O8gakrRYU-190" value="1" style="whiteSpace=wrap;html=1;aspect=fixed;fillColor=none;" vertex="1" parent="1">
          <mxGeometry x="534.5" y="67" width="20" height="20" as="geometry" />
        </mxCell>
        <mxCell id="yUxTOVAlQq0O8gakrRYU-191" value="1" style="whiteSpace=wrap;html=1;aspect=fixed;fillColor=none;" vertex="1" parent="1">
          <mxGeometry x="493" y="66" width="20" height="20" as="geometry" />
        </mxCell>
        <mxCell id="yUxTOVAlQq0O8gakrRYU-198" value="" style="endArrow=none;html=1;rounded=0;exitX=1;exitY=0.5;exitDx=0;exitDy=0;" edge="1" parent="1" source="yUxTOVAlQq0O8gakrRYU-131">
          <mxGeometry width="50" height="50" relative="1" as="geometry">
            <mxPoint x="390" y="440" as="sourcePoint" />
            <mxPoint x="562" y="125" as="targetPoint" />
          </mxGeometry>
        </mxCell>
        <mxCell id="yUxTOVAlQq0O8gakrRYU-199" value="N" style="whiteSpace=wrap;html=1;aspect=fixed;fillColor=none;" vertex="1" parent="1">
          <mxGeometry x="241.5" y="100" width="20" height="20" as="geometry" />
        </mxCell>
        <mxCell id="yUxTOVAlQq0O8gakrRYU-200" value="1" style="whiteSpace=wrap;html=1;aspect=fixed;fillColor=none;" vertex="1" parent="1">
          <mxGeometry x="532.5" y="100" width="20" height="20" as="geometry" />
        </mxCell>
        <mxCell id="yUxTOVAlQq0O8gakrRYU-201" value="N" style="whiteSpace=wrap;html=1;aspect=fixed;fillColor=none;" vertex="1" parent="1">
          <mxGeometry x="240.5" y="152" width="20" height="20" as="geometry" />
        </mxCell>
        <mxCell id="yUxTOVAlQq0O8gakrRYU-202" value="N" style="whiteSpace=wrap;html=1;aspect=fixed;fillColor=none;" vertex="1" parent="1">
          <mxGeometry x="393" y="284" width="20" height="20" as="geometry" />
        </mxCell>
        <mxCell id="yUxTOVAlQq0O8gakrRYU-203" value="N" style="whiteSpace=wrap;html=1;aspect=fixed;fillColor=none;" vertex="1" parent="1">
          <mxGeometry x="190" y="172" width="20" height="20" as="geometry" />
        </mxCell>
        <mxCell id="yUxTOVAlQq0O8gakrRYU-204" value="1" style="whiteSpace=wrap;html=1;aspect=fixed;fillColor=none;" vertex="1" parent="1">
          <mxGeometry x="527" y="186" width="20" height="20" as="geometry" />
        </mxCell>
        <mxCell id="yUxTOVAlQq0O8gakrRYU-205" value="N" style="whiteSpace=wrap;html=1;aspect=fixed;fillColor=none;" vertex="1" parent="1">
          <mxGeometry x="133" y="173" width="20" height="20" as="geometry" />
        </mxCell>
        <mxCell id="yUxTOVAlQq0O8gakrRYU-206" value="1" style="whiteSpace=wrap;html=1;aspect=fixed;fillColor=none;" vertex="1" parent="1">
          <mxGeometry x="133" y="234" width="20" height="20" as="geometry" />
        </mxCell>
        <mxCell id="yUxTOVAlQq0O8gakrRYU-207" value="N" style="whiteSpace=wrap;html=1;aspect=fixed;fillColor=none;" vertex="1" parent="1">
          <mxGeometry x="665" y="437" width="20" height="20" as="geometry" />
        </mxCell>
        <mxCell id="yUxTOVAlQq0O8gakrRYU-208" value="" style="endArrow=none;html=1;rounded=0;" edge="1" parent="1">
          <mxGeometry width="50" height="50" relative="1" as="geometry">
            <mxPoint x="407" y="680" as="sourcePoint" />
            <mxPoint x="547" y="680" as="targetPoint" />
          </mxGeometry>
        </mxCell>
        <mxCell id="yUxTOVAlQq0O8gakrRYU-209" value="&lt;font style=&quot;font-size: 10px;&quot;&gt;&lt;b&gt;Tabla de Int.&lt;/b&gt;&lt;/font&gt;&lt;div&gt;&lt;font style=&quot;font-size: 10px;&quot;&gt;&lt;b&gt;ID_Cliente&lt;/b&gt;&lt;/font&gt;&lt;/div&gt;&lt;div&gt;&lt;font style=&quot;font-size: 10px;&quot;&gt;&lt;b&gt;ID_Venta&lt;/b&gt;&lt;/font&gt;&lt;/div&gt;" style="text;html=1;align=center;verticalAlign=middle;whiteSpace=wrap;rounded=0;" vertex="1" parent="1">
          <mxGeometry x="552.5" y="670" width="60" height="30" as="geometry" />
        </mxCell>
        <mxCell id="yUxTOVAlQq0O8gakrRYU-210" value="" style="endArrow=none;html=1;rounded=0;" edge="1" parent="1">
          <mxGeometry width="50" height="50" relative="1" as="geometry">
            <mxPoint x="420" y="234" as="sourcePoint" />
            <mxPoint x="340" y="234" as="targetPoint" />
          </mxGeometry>
        </mxCell>
        <mxCell id="yUxTOVAlQq0O8gakrRYU-211" value="&lt;font style=&quot;font-size: 10px;&quot;&gt;&lt;b&gt;Tabla de Int.&lt;/b&gt;&lt;/font&gt;&lt;div&gt;&lt;font style=&quot;font-size: 10px;&quot;&gt;&lt;b&gt;ID_Producto&lt;/b&gt;&lt;/font&gt;&lt;/div&gt;&lt;div&gt;&lt;font style=&quot;font-size: 10px;&quot;&gt;&lt;b&gt;ID_Venta&lt;/b&gt;&lt;/font&gt;&lt;/div&gt;" style="text;html=1;align=center;verticalAlign=middle;whiteSpace=wrap;rounded=0;" vertex="1" parent="1">
          <mxGeometry x="272.5" y="224" width="60" height="30" as="geometry" />
        </mxCell>
        <mxCell id="yUxTOVAlQq0O8gakrRYU-212" value="N" style="whiteSpace=wrap;html=1;aspect=fixed;fillColor=none;" vertex="1" parent="1">
          <mxGeometry x="523" y="363" width="20" height="20" as="geometry" />
        </mxCell>
        <mxCell id="yUxTOVAlQq0O8gakrRYU-213" value="1" style="whiteSpace=wrap;html=1;aspect=fixed;fillColor=none;" vertex="1" parent="1">
          <mxGeometry x="580.5" y="363" width="20" height="20" as="geometry" />
        </mxCell>
      </root>
    </mxGraphModel>
  </diagram>
</mxfile>
